<?xml version="1.0" encoding="utf-8"?>
<!-- Generator: Adobe Illustrator 20.1.0, SVG Export Plug-In . SVG Version: 6.00 Build 0)  -->
<svg version="1.1" id="Isolatiemodus" xmlns="http://www.w3.org/2000/svg" xmlns:xlink="http://www.w3.org/1999/xlink" x="0px"
	 y="0px" viewBox="0 0 318 206" style="enable-background:new 0 0 318 206;" xml:space="preserve">
<style type="text/css">
	.st0{fill:#BABABA;stroke:#BABABA;stroke-width:3;stroke-miterlimit:10;}
	.st1{fill:#BABABA;stroke:#BABABA;stroke-width:2;stroke-miterlimit:10;}
	.st2{fill:none;stroke:#BABABA;stroke-miterlimit:10;}
	.st3{fill:none;stroke:#BABABA;stroke-width:2;stroke-miterlimit:10;}
	.st4{fill:none;stroke:#BABABA;stroke-width:3;stroke-miterlimit:10;}
	.st5{fill:#FFFFFF;stroke:#000000;stroke-width:3;stroke-miterlimit:10;}
	.st6{fill:#FFFFFF;stroke:#000000;stroke-width:2;stroke-miterlimit:10;}
	.st7{fill:none;stroke:#000000;stroke-miterlimit:10;}
	.st8{fill:none;stroke:#000000;stroke-width:2;stroke-miterlimit:10;}
	.st9{fill:none;stroke:#000000;stroke-width:3;stroke-miterlimit:10;}
</style>
<g>
	<g>
		<rect x="62.4" y="17.3" class="st0" width="231.5" height="20.4"/>
		<rect x="70.3" y="37.7" class="st0" width="214.4" height="149.9"/>
		<rect x="88.1" y="52.1" class="st1" width="32.9" height="46"/>
		<line class="st2" x1="104.5" y1="52.1" x2="104.5" y2="83"/>
		<line class="st2" x1="88.1" y1="83" x2="121" y2="83"/>
		<rect x="237.4" y="52.1" class="st1" width="32.9" height="46"/>
		<line class="st2" x1="253.8" y1="52.1" x2="253.8" y2="83"/>
		<line class="st2" x1="237.4" y1="83" x2="270.2" y2="83"/>
		<rect x="188.7" y="52.1" class="st1" width="32.9" height="46"/>
		<line class="st2" x1="205.1" y1="52.1" x2="205.1" y2="83"/>
		<line class="st2" x1="188.7" y1="83" x2="221.6" y2="83"/>
		<rect x="138.4" y="52.1" class="st1" width="32.9" height="46"/>
		<line class="st2" x1="154.8" y1="52.1" x2="154.8" y2="83"/>
		<line class="st2" x1="138.4" y1="83" x2="171.3" y2="83"/>
		<rect x="88.1" y="118.5" class="st3" width="56.6" height="40.8"/>
		<line class="st2" x1="88.1" y1="148.8" x2="144.6" y2="148.8"/>
		<rect x="83.5" y="159.3" class="st3" width="65.8" height="8.5"/>
		<line class="st2" x1="94.7" y1="138.9" x2="103.5" y2="130.1"/>
		<line class="st2" x1="102.6" y1="138.9" x2="111.1" y2="130.4"/>
		<rect x="213.7" y="118.5" class="st3" width="56.6" height="40.8"/>
		<line class="st2" x1="213.7" y1="148.8" x2="270.2" y2="148.8"/>
		<rect x="209.1" y="159.3" class="st3" width="65.8" height="8.5"/>
		<line class="st2" x1="220.3" y1="138.9" x2="229.1" y2="130.1"/>
		<line class="st2" x1="228.2" y1="138.9" x2="236.7" y2="130.4"/>
		<rect x="168" y="130.4" class="st3" width="25.2" height="40"/>
		<rect x="164" y="170.3" class="st3" width="32.1" height="6.9"/>
		<rect x="157.6" y="177.2" class="st3" width="44.9" height="5.9"/>
		<rect x="149.2" y="183.2" class="st3" width="59.8" height="4.9"/>
		<rect x="173.4" y="134.7" class="st2" width="14.3" height="18.4"/>
		<polygon class="st0" points="49.9,105 83.6,163.3 16.2,163.3 		"/>
		<line class="st4" x1="49.9" y1="143.9" x2="49.9" y2="190.1"/>
		<line class="st4" x1="49.9" y1="143.9" x2="35.5" y2="150.4"/>
		<line class="st4" x1="49.9" y1="127.8" x2="49.9" y2="143.9"/>
		<line class="st4" x1="59.1" y1="143.9" x2="49.9" y2="135.8"/>
	</g>
	<g>
		<g>
			<rect x="63.9" y="17.3" class="st5" width="231.5" height="20.4"/>
			<rect x="71.7" y="37.7" class="st5" width="214.4" height="149.9"/>
			<rect x="89.5" y="52.1" class="st6" width="32.9" height="46"/>
			<line class="st7" x1="105.9" y1="52.1" x2="105.9" y2="83"/>
			<line class="st7" x1="89.5" y1="83" x2="122.4" y2="83"/>
			<g>
				<rect x="238.8" y="52.1" class="st6" width="32.9" height="46"/>
				<line class="st7" x1="255.2" y1="52.1" x2="255.2" y2="83"/>
				<line class="st7" x1="238.8" y1="83" x2="271.7" y2="83"/>
			</g>
			<g>
				<rect x="190.1" y="52.1" class="st6" width="32.9" height="46"/>
				<line class="st7" x1="206.6" y1="52.1" x2="206.6" y2="83"/>
				<line class="st7" x1="190.1" y1="83" x2="223" y2="83"/>
			</g>
			<g>
				<rect x="139.8" y="52.1" class="st6" width="32.9" height="46"/>
				<line class="st7" x1="156.3" y1="52.1" x2="156.3" y2="83"/>
				<line class="st7" x1="139.8" y1="83" x2="172.7" y2="83"/>
			</g>
			<g>
				<rect x="89.5" y="118.5" class="st8" width="56.6" height="40.8"/>
				<line class="st7" x1="89.5" y1="148.8" x2="146.1" y2="148.8"/>
				<rect x="84.9" y="159.3" class="st8" width="65.8" height="8.5"/>
				<line class="st7" x1="96.1" y1="138.9" x2="105" y2="130.1"/>
				<line class="st7" x1="104" y1="138.9" x2="112.5" y2="130.4"/>
			</g>
			<g>
				<rect x="215.1" y="118.5" class="st8" width="56.6" height="40.8"/>
				<line class="st7" x1="215.1" y1="148.8" x2="271.7" y2="148.8"/>
				<rect x="210.5" y="159.3" class="st8" width="65.8" height="8.5"/>
				<line class="st7" x1="221.7" y1="138.9" x2="230.6" y2="130.1"/>
				<line class="st7" x1="229.6" y1="138.9" x2="238.1" y2="130.4"/>
			</g>
			<rect x="169.4" y="130.4" class="st8" width="25.2" height="40"/>
			<rect x="165.5" y="170.3" class="st8" width="32.1" height="6.9"/>
			<rect x="159" y="177.2" class="st8" width="44.9" height="5.9"/>
			<rect x="150.7" y="183.2" class="st8" width="59.8" height="4.9"/>
			<rect x="174.8" y="134.7" class="st7" width="14.3" height="18.4"/>
			<polygon class="st5" points="51.4,105 85.1,163.3 17.7,163.3 			"/>
			<line class="st9" x1="51.4" y1="143.9" x2="51.4" y2="190.1"/>
			<line class="st9" x1="51.4" y1="143.9" x2="36.9" y2="150.4"/>
			<line class="st9" x1="51.4" y1="127.8" x2="51.4" y2="143.9"/>
			<line class="st9" x1="60.6" y1="143.9" x2="51.4" y2="135.8"/>
		</g>
	</g>
</g>
</svg>
