<?xml version="1.0" encoding="utf-8"?>
<!-- Generator: Adobe Illustrator 20.1.0, SVG Export Plug-In . SVG Version: 6.00 Build 0)  -->
<svg version="1.1" id="Isolatiemodus" xmlns="http://www.w3.org/2000/svg" xmlns:xlink="http://www.w3.org/1999/xlink" x="0px"
	 y="0px" viewBox="0 0 318 206" style="enable-background:new 0 0 318 206;" xml:space="preserve">
<style type="text/css">
	.st0{fill:#BABABA;stroke:#BABABA;stroke-width:3;stroke-miterlimit:10;}
	.st1{fill:#BABABA;stroke:#BABABA;stroke-width:2;stroke-miterlimit:10;}
	.st2{fill:none;stroke:#BABABA;stroke-miterlimit:10;}
	.st3{fill:none;stroke:#BABABA;stroke-width:2;stroke-miterlimit:10;}
	.st4{fill:none;stroke:#BABABA;stroke-width:3;stroke-miterlimit:10;}
	.st5{fill:#FFFFFF;stroke:#000000;stroke-width:3;stroke-miterlimit:10;}
	.st6{fill:#FFFFFF;stroke:#000000;stroke-width:2;stroke-miterlimit:10;}
	.st7{fill:none;stroke:#000000;stroke-miterlimit:10;}
	.st8{fill:none;stroke:#000000;stroke-width:2;stroke-miterlimit:10;}
	.st9{fill:none;stroke:#000000;stroke-width:3;stroke-miterlimit:10;}
	.st10{stroke:#000000;stroke-width:4;stroke-linecap:round;stroke-linejoin:round;stroke-miterlimit:10;}
	.st11{fill:#FFFFFF;stroke:#000000;stroke-width:4;stroke-linecap:round;stroke-linejoin:round;stroke-miterlimit:10;}
	.st12{fill:#FDFDFD;stroke:#000000;stroke-width:4;stroke-linecap:round;stroke-linejoin:round;stroke-miterlimit:10;}
	.st13{fill:none;stroke:#000000;stroke-width:4;stroke-linecap:round;stroke-linejoin:round;stroke-miterlimit:10;}
	.st14{fill:none;stroke:#000000;stroke-width:4;stroke-linecap:round;stroke-miterlimit:10;}
</style>
<g>
	<g>
		<rect x="-373.7" y="52.5" class="st0" width="231.5" height="20.4"/>
		<rect x="-365.8" y="72.9" class="st0" width="214.4" height="149.9"/>
		<rect x="-348" y="87.3" class="st1" width="32.9" height="46"/>
		<line class="st2" x1="-331.6" y1="87.3" x2="-331.6" y2="118.2"/>
		<line class="st2" x1="-348" y1="118.2" x2="-315.1" y2="118.2"/>
		<rect x="-198.7" y="87.3" class="st1" width="32.9" height="46"/>
		<line class="st2" x1="-182.3" y1="87.3" x2="-182.3" y2="118.2"/>
		<line class="st2" x1="-198.7" y1="118.2" x2="-165.9" y2="118.2"/>
		<rect x="-247.4" y="87.3" class="st1" width="32.9" height="46"/>
		<line class="st2" x1="-231" y1="87.3" x2="-231" y2="118.2"/>
		<line class="st2" x1="-247.4" y1="118.2" x2="-214.5" y2="118.2"/>
		<rect x="-297.7" y="87.3" class="st1" width="32.9" height="46"/>
		<line class="st2" x1="-281.3" y1="87.3" x2="-281.3" y2="118.2"/>
		<line class="st2" x1="-297.7" y1="118.2" x2="-264.8" y2="118.2"/>
		<rect x="-348" y="153.7" class="st3" width="56.6" height="40.8"/>
		<line class="st2" x1="-348" y1="184" x2="-291.5" y2="184"/>
		<rect x="-352.6" y="194.5" class="st3" width="65.8" height="8.5"/>
		<line class="st2" x1="-341.4" y1="174.1" x2="-332.6" y2="165.3"/>
		<line class="st2" x1="-333.5" y1="174.1" x2="-325" y2="165.6"/>
		<rect x="-222.4" y="153.7" class="st3" width="56.6" height="40.8"/>
		<line class="st2" x1="-222.4" y1="184" x2="-165.9" y2="184"/>
		<rect x="-227" y="194.5" class="st3" width="65.8" height="8.5"/>
		<line class="st2" x1="-215.8" y1="174.1" x2="-207" y2="165.3"/>
		<line class="st2" x1="-207.9" y1="174.1" x2="-199.4" y2="165.6"/>
		<rect x="-268.1" y="165.6" class="st3" width="25.2" height="40"/>
		<rect x="-272.1" y="205.5" class="st3" width="32.1" height="6.9"/>
		<rect x="-278.5" y="212.4" class="st3" width="44.9" height="5.9"/>
		<rect x="-286.9" y="218.4" class="st3" width="59.8" height="4.9"/>
		<rect x="-262.7" y="169.9" class="st2" width="14.3" height="18.4"/>
		<polygon class="st0" points="-386.2,140.2 -352.5,198.5 -419.9,198.5 		"/>
		<line class="st4" x1="-386.2" y1="179.1" x2="-386.2" y2="225.3"/>
		<line class="st4" x1="-386.2" y1="179.1" x2="-400.6" y2="185.6"/>
		<line class="st4" x1="-386.2" y1="163" x2="-386.2" y2="179.1"/>
		<line class="st4" x1="-377" y1="179.1" x2="-386.2" y2="171"/>
	</g>
	<g>
		<g>
			<rect x="-372.2" y="52.5" class="st5" width="231.5" height="20.4"/>
			<rect x="-364.4" y="72.9" class="st5" width="214.4" height="149.9"/>
			<rect x="-346.6" y="87.3" class="st6" width="32.9" height="46"/>
			<line class="st7" x1="-330.2" y1="87.3" x2="-330.2" y2="118.2"/>
			<line class="st7" x1="-346.6" y1="118.2" x2="-313.7" y2="118.2"/>
			<g>
				<rect x="-197.3" y="87.3" class="st6" width="32.9" height="46"/>
				<line class="st7" x1="-180.9" y1="87.3" x2="-180.9" y2="118.2"/>
				<line class="st7" x1="-197.3" y1="118.2" x2="-164.4" y2="118.2"/>
			</g>
			<g>
				<rect x="-246" y="87.3" class="st6" width="32.9" height="46"/>
				<line class="st7" x1="-229.5" y1="87.3" x2="-229.5" y2="118.2"/>
				<line class="st7" x1="-246" y1="118.2" x2="-213.1" y2="118.2"/>
			</g>
			<g>
				<rect x="-296.3" y="87.3" class="st6" width="32.9" height="46"/>
				<line class="st7" x1="-279.8" y1="87.3" x2="-279.8" y2="118.2"/>
				<line class="st7" x1="-296.3" y1="118.2" x2="-263.4" y2="118.2"/>
			</g>
			<g>
				<rect x="-346.6" y="153.7" class="st8" width="56.6" height="40.8"/>
				<line class="st7" x1="-346.6" y1="184" x2="-290" y2="184"/>
				<rect x="-351.2" y="194.5" class="st8" width="65.8" height="8.5"/>
				<line class="st7" x1="-340" y1="174.1" x2="-331.1" y2="165.3"/>
				<line class="st7" x1="-332.1" y1="174.1" x2="-323.6" y2="165.6"/>
			</g>
			<g>
				<rect x="-221" y="153.7" class="st8" width="56.6" height="40.8"/>
				<line class="st7" x1="-221" y1="184" x2="-164.4" y2="184"/>
				<rect x="-225.6" y="194.5" class="st8" width="65.8" height="8.5"/>
				<line class="st7" x1="-214.4" y1="174.1" x2="-205.5" y2="165.3"/>
				<line class="st7" x1="-206.5" y1="174.1" x2="-198" y2="165.6"/>
			</g>
			<rect x="-266.7" y="165.6" class="st8" width="25.2" height="40"/>
			<rect x="-270.6" y="205.5" class="st8" width="32.1" height="6.9"/>
			<rect x="-277.1" y="212.4" class="st8" width="44.9" height="5.9"/>
			<rect x="-285.4" y="218.4" class="st8" width="59.8" height="4.9"/>
			<rect x="-261.3" y="169.9" class="st7" width="14.3" height="18.4"/>
			<polygon class="st5" points="-384.7,140.2 -351,198.5 -418.4,198.5 			"/>
			<line class="st9" x1="-384.7" y1="179.1" x2="-384.7" y2="225.3"/>
			<line class="st9" x1="-384.7" y1="179.1" x2="-399.2" y2="185.6"/>
			<line class="st9" x1="-384.7" y1="163" x2="-384.7" y2="179.1"/>
			<line class="st9" x1="-375.5" y1="179.1" x2="-384.7" y2="171"/>
		</g>
	</g>
</g>
<circle class="st10" cx="122" cy="116.1" r="19.2"/>
<path class="st11" d="M122,51.2l-12.7-11.9H72.2c0,0-24.7-0.6-22.1,27.4c10.4,58.6,21.7,40,21.7,40s6.7-11.3,17.2-40
	c8.8-24.1,20.2-27.4,20.2-27.4L122,51.2z"/>
<path class="st11" d="M122,51.2l-12.8-11.9c0,0-15.7,8.9-20.8,30.5l2.8,12.4C91.2,82.1,95.2,58,122,51.2z"/>
<path class="st11" d="M184.5,62.5l12.7,12h37.1c0,0,24.7,0.6,22.1-27.4c-10.4-58.6-21.7-40-21.7-40s-6.7,11.3-17.2,40
	c-8.8,24.1-20.2,27.4-20.2,27.4L184.5,62.5z"/>
<path class="st11" d="M164.5,201.5c0,0,51.3,3.7,50-23.6c-1.3-30.2,8.1-42.9,8.1-42.9s13.4-22.3,14.6-33.1
	c10.7-62-72.8-55.8-72.8-55.8S81,39.9,91.6,101.9c1.2,10.8,14.6,33.1,14.6,33.1s9.5,12.8,8.1,42.9
	C113.2,205.2,164.5,201.5,164.5,201.5z"/>
<path class="st12" d="M164.5,46c10.2,0.1,21.8,0.8,21.8,0.8s-22.3,77.9,1.3,91.2c0,0,26.2,13.8,26.8,34.6
	c0.7,20.8-11.1,29.8-49.9,29c-38.7,0.9-50.5-8.1-49.9-29c0.7-20.8,26.8-34.6,26.8-34.6c23.7-13.4,1.3-91.2,1.3-91.2
	S154.2,46.1,164.5,46z"/>
<path class="st13" d="M108.3,97.6c0,0,6.2-10.7,22.5-8.4"/>
<circle class="st13" cx="125.7" cy="115.3" r="10.1"/>
<circle class="st13" cx="130.7" cy="116.1" r="2.1"/>
<path class="st13" d="M220.6,97.6c0,0-6.2-10.7-22.5-8.4"/>
<circle class="st12" cx="203.2" cy="115.3" r="10.1"/>
<circle class="st13" cx="208.2" cy="116.1" r="2.1"/>
<path class="st14" d="M164.5,179.6c0,0,11,13.3,25.6,0"/>
<path class="st14" d="M139,179.6c0,0,11,13.3,25.6,0"/>
<path class="st11" d="M164.1,149.4c0,0,26.7-1.9,10.3,14.5c-3.7,3.4-8.4,5.3-10.3,5.3h0.4c-1.9,0-6.6-1.9-10.3-5.3
	c-16.4-16.4,10.3-14.5,10.3-14.5"/>
<path class="st11" d="M164.5,176.1c7.9,15.6,18,14.9,18,14.9s-5.5-1.2-7.5-12.9c-2.1-14.6-10.4-8.9-10.4-8.9s-8.3-5.7-10.4,8.9
	c-2,11.8-7.5,12.9-7.5,12.9S156.5,191.7,164.5,176.1z"/>
<path class="st11" d="M238.9,15.1l-10.1,22.7c0,0,14.5,3.9,17,16.6S249.6,29.9,238.9,15.1z"/>
<circle cx="210.4" cy="132.9" r="1.3"/>
<ellipse transform="matrix(0.9585 -0.2852 0.2852 0.9585 -29.7998 63.835)" cx="204.3" cy="134.2" rx="1.1" ry="1.1"/>
<ellipse transform="matrix(0.9585 -0.2852 0.2852 0.9585 -30.5031 65.0836)" cx="208.2" cy="137.3" rx="1.1" ry="1.1"/>
</svg>
